<?xml version="1.0" encoding="utf-8"?>
<!-- Generator: Adobe Illustrator 17.1.0, SVG Export Plug-In . SVG Version: 6.00 Build 0)  -->
<!DOCTYPE svg PUBLIC "-//W3C//DTD SVG 1.1//EN" "http://www.w3.org/Graphics/SVG/1.1/DTD/svg11.dtd">
<svg version="1.1" id="Layer_1" xmlns="http://www.w3.org/2000/svg" xmlns:xlink="http://www.w3.org/1999/xlink" x="0px" y="0px"
	 viewBox="0 0 177 291" style="enable-background:new 0 0 177 291;" xml:space="preserve">
<style type="text/css">
	.st0{fill:#040404;}
	.st1{fill:#31443A;}
</style>
<g>
	<path class="st0" d="M115.4,73.8c-8-15-20.7-23-37.5-23.7c-7-0.3-14.1,1.3-21.2,1.9c-4.6,0.4-9.2,0.5-13.9,0.8c0.5-1.7,1-3.4,1.5-5
		c9.3,2.8,18.6,0.7,27.7-0.3c11.8-1.2,22.4,1.3,32.3,7.4c13,8,19.9,19.7,20.1,35.1c-2.3-4.6-4.5-9.3-6.9-13.9
		C117,75.2,116.1,74.6,115.4,73.8z"/>
	<path d="M141.8,103.4c-3.2-11.7-6.6-23.5-9.8-35.2c-1.5-5.5-2.9-11.1-4.3-16.6c-1.4-4.4-4.3-7.4-8.4-9.4c-4.2-2-8.5-3.7-12.7-5.7
		c-2.8-1.4-6.4-2.4-8-4.7c-2.4-3.5-5.7-4.5-9.1-5.9h-10c-1.8,1-4.5,1.4-5.3,2.9c-2.2,4.1-6.2,5.1-9.7,7c-4.4,1.3-8.8,2.3-13,4
		c-3.5,1.4-6.8,3.4-7.1,7.9c-0.5,1.7-1,3.4-1.5,5c-1.5,5-3,10-4.5,15c-0.3,1.3-0.6,2.7-0.9,4c-1.8,5.6-3.5,11.2-5.2,16.8
		c-2.2,6.1-4.5,12.1-6.7,18.2v23c0.8,4.2,1.7,8.5,2.3,12.8c0.7,4.6,1.3,5.2,6,5.2c1.4,0,2.9-0.2,4-0.3c0.3-0.5,0.5-0.6,0.5-0.8
		c0-0.8,0.1-1.6,0-2.5c-0.4-19.3,0-38.5,8.3-56.5c0.8-2,1.7-4,2.5-6c0.2-0.2,0.3-0.5,0.2-0.9c1.3-2.3,2.5-4.6,3.8-6.9
		c1.3,3.6,2.7,7.1,4,10.7c1.1,6.5,2.3,13.1,3.3,19.6c0.2,1.4,0.1,3-0.2,4.5c-2,9.6-3.9,19.1-6.2,28.6c-1.6,6.8-4.2,13.3-5.6,20.1
		c-2.8,13.3-4.2,26.7-3.8,40.5c0.2,8.1-1.8,16.6-4.6,24.3c-4.4,12-4.9,24.4-5.4,36.8c-0.1,1.8,0,3.7-0.2,5.5
		c-0.4,2.8,0.6,4.7,2.9,6.1h10c0.4-2,0.4-4.2,1.2-6.1c4.8-11,9.2-22.1,8.1-34.5c0-0.5,0.1-1,0.2-1.5c1.8-4.8,3.8-9.5,5.3-14.4
		c5.8-17.6,11.4-35.4,17.3-53c1-2.9,3.1-5.3,4.7-7.9c0.6,0.2,1.2,0.3,1.8,0.5c1.1,2.4,2.2,4.7,3.2,7.1c-0.1,0.3,0,0.6,0.2,0.8
		c1.6,6,3.2,12,4.8,18c0.2,1,0.4,2.1,0.6,3.1c2.2,9,4.5,17.9,6.7,26.9c0.9,2.8,1.4,5.9,2.7,8.5c2.3,4.6,3.5,9.3,3.3,14.4
		c-0.1,1.8-0.1,3.7,0.4,5.5c2.6,8.9,5.4,17.7,8.3,26.5c1.6,4.9,3.5,5.9,8.5,4.9c1.8-0.4,3.4-1.2,5.1-1.8c0-4.7,0.1-9.2,0-13.7
		c-0.3-11.3-0.7-22.6-5.8-33.1c-0.5-2-1-4.1-1.6-6.1c-0.2-1.6-0.3-3.3-0.5-4.9c0.2-0.3,0.2-0.6,0-0.9v-13.1
		c-0.1-2.4-0.1-4.7-0.2-7.1c-0.2-1.6-0.4-3.3-0.6-4.9c-0.3-6.3-0.4-12.6-1.1-18.8c-1.7-17.8-3.2-35.6-9.1-52.7
		c-2.8-8.1-3.1-16.2-0.5-24.4c1.5-4.7,3.1-9.4,4.6-14.1c0.7,0.8,1.7,1.4,2.1,2.2c2.4,4.6,4.6,9.3,6.9,13.9c0.8,3,1.2,6.2,2.4,9
		c2,4.7,2.6,9.4,2.8,14.5c0.4,10.6,1.4,21.1,2.2,32.4c3.3,0.4,6.6,0.8,9.6,1.1c0.9-2.3,1.5-3.7,2-5.1v-31
		C142.9,108.4,142.4,105.9,141.8,103.4z"/>
</g>
<g>
	<path class="st1" d="M143.4,141.9c-0.6,1.4-1.1,2.9-2,5.1c-3-0.3-6.3-0.7-9.6-1.1c-0.8-11.3-1.8-21.9-2.2-32.4
		c-0.2-5.1-0.8-9.8-2.8-14.5c-1.2-2.8-1.6-6-2.4-9c-0.2-15.4-7.1-27.1-20.1-35.1c-9.9-6.1-20.5-8.6-32.3-7.4
		c-9.2,0.9-18.5,3-27.7,0.3c0.3-4.5,3.6-6.5,7.1-7.9c4.2-1.7,8.7-2.7,13-4c1,1.2,1.8,3.1,3.1,3.4c4.2,1.1,8.7,2.6,12.9,2.2
		c16-1.7,30.9,0.5,44.5,9.7c0.7,0.5,1.8,0.4,2.7,0.5c1.4,5.5,2.8,11.1,4.3,16.6c3.2,11.7,6.6,23.5,9.8,35.2c0.7,2.5,1.1,5,1.6,7.5
		C143.4,121.2,143.4,131.6,143.4,141.9z"/>
	<path class="st1" d="M122.7,214.8c-0.2-1.6-0.3-3.3-0.5-4.9c-0.1-0.2-0.2-0.4-0.3-0.7c0-0.1,0.2-0.2,0.3-0.3v-13.1
		c-0.1-2.4-0.1-4.7-0.2-7.1c-1.8-1.6-4-2.9-5.4-4.8c-3.2-4.2-9.1-16.2-9.2-17.2c-5.9-16-3.1-48.1-4.1-64.5
		c-0.2-3.2-2.1-18.4-4.8-23.9C94.7,71,89.9,62.5,70,65.7c-0.7,0.1-5.6,1.2-10.6,2.3c-6.5,1.4-15.7,3.2-18,3.4
		c-1.3,0.2-2.7,0.4-4,0.6c-1.8,5.6-3.5,11.2-5.2,16.8c4.9-0.3,9.7-0.5,14.6-0.8c0.8-2,1.7-4,2.5-6c0.2-0.2,0.3-0.5,0.2-0.9
		c1.3-2.3,2.5-4.6,3.8-6.9c1.3,3.6,2.7,7.1,4,10.7c2.1-0.6,10.6-2.8,15.5-3.3c6.3-0.7,14,6.9,16,18c0.4,2.3-1.2,18.3-2.3,27.3
		c-0.6,7.7-1.2,15.3-1.9,23c-0.1,1.2-0.2,2.4-0.3,3.7c0.6,0.2,1.2,0.3,1.8,0.5c1.1,2.4,2.2,4.7,3.2,7.1c-0.1,0.3,0,0.6,0.2,0.8
		c1.6,6,3.2,12,4.8,18c0.2,1,0.4,2.1,0.6,3.1c2.2,9,4.5,17.9,6.7,26.9c0.9,0.1,1.8,0.1,2.6,0.2c1,0.7,2,1.3,3,2
		c5.6,3,11.2,5.9,16.9,8.9C123.7,218.9,123.2,216.9,122.7,214.8z M53.3,74.1L53.3,74.1C53.2,74,53.3,74,53.3,74.1L53.3,74.1z"/>
	<g>
		<path class="st1" d="M122.2,209.9c-0.1-0.2-0.2-0.4-0.3-0.7c0-0.1,0.2-0.2,0.3-0.3C122.3,209.2,122.4,209.6,122.2,209.9z"/>
		<path class="st1" d="M57.4,66.3c-6.3,0.9-12.7,1.1-19.1,1.6c1.5-5,3-10,4.5-15c4.6-0.3,9.3-0.4,13.9-0.8
			c7.1-0.6,14.2-2.2,21.2-1.9c16.8,0.7,29.5,8.7,37.5,23.7c-1.5,4.7-3.2,9.4-4.6,14.1c-2.6,8.2-2.3,16.4,0.5,24.4
			c5.9,17.1,7.4,34.9,9.1,52.7c0.6,6.2,0.7,12.5,1.1,18.8c-4.5-2.4-6.5-6.7-8.6-11c-5.5-11.7-7.6-24.2-7-36.8
			c0.9-18.3,1.4-36.5-3.1-54.5c-3.8-15.3-15-22.1-30.4-18.9C67.4,63.8,62.5,65.5,57.4,66.3z"/>
		<path class="st1" d="M53.3,74.1L53.3,74.1L53.3,74.1C53.2,74,53.3,74,53.3,74.1z"/>
	</g>
</g>
</svg>
